<svg xmlns="http://www.w3.org/2000/svg" viewBox="0 0 59 59">
	<path fill="#9f8f75" d="M52.5 6H38.456c-.11-1.25-.495-3.358-1.813-4.711C35.809.434 34.751 0 33.499 0H23.5c-1.252 0-2.31.434-3.144 1.289C19.038 2.642 18.653 4.75 18.543 6H6.5a1 1 0 1 0 0 2h2.041l1.915 46.021C10.493 55.743 11.565 59 15.364 59h28.272c3.799 0 4.871-3.257 4.907-4.958L50.459 8H52.5a1 1 0 1 0 0-2zm-32 44a1 1 0 1 1-2 0V17a1 1 0 1 1 2 0v33zm10 0a1 1 0 1 1-2 0V17a1 1 0 1 1 2 0v33zm10 0a1 1 0 1 1-2 0V17a1 1 0 1 1 2 0v33zM21.792 2.681C22.24 2.223 22.799 2 23.5 2h9.999c.701 0 1.26.223 1.708.681.805.823 1.128 2.271 1.24 3.319H20.553c.112-1.048.435-2.496 1.239-3.319z"/>
</svg>
